<svg xmlns="http://www.w3.org/2000/svg" viewBox="0 0 24 24" width="24" height="24">
  <circle cx="12" cy="12" r="11" fill="#f0f0f0" stroke="#e0e0e0" stroke-width="0.5" />
  <g fill="#555">
    <path d="M12,6c-0.3,0-0.5,0.2-0.5,0.5v3.8L9.2,8c-0.2-0.2-0.5-0.2-0.7,0s-0.2,0.5,0,0.7l2.3,2.3H7C6.7,11,6.5,11.2,6.5,11.5
    S6.7,12,7,12h3.8l-2.3,2.3c-0.2,0.2-0.2,0.5,0,0.7c0.1,0.1,0.2,0.1,0.4,0.1s0.3,0,0.4-0.1l2.3-2.3V16c0,0.3,0.2,0.5,0.5,0.5
    s0.5-0.2,0.5-0.5v-3.8l2.3,2.3c0.1,0.1,0.2,0.1,0.4,0.1s0.3,0,0.4-0.1c0.2-0.2,0.2-0.5,0-0.7L13.2,12H17c0.3,0,0.5-0.2,0.5-0.5
    S17.3,11,17,11h-3.8l2.3-2.3c0.2-0.2,0.2-0.5,0-0.7s-0.5-0.2-0.7,0l-2.3,2.3V6.5C12.5,6.2,12.3,6,12,6z"/>
  </g>
  <circle cx="19" cy="5" r="4" fill="#e53e3e" />
  <path d="M16.95 3.5l4 4" stroke="white" stroke-width="1.5" stroke-linecap="round" />
  <path d="M20.95 3.5l-4 4" stroke="white" stroke-width="1.5" stroke-linecap="round" />
</svg>