<svg xmlns="http://www.w3.org/2000/svg" viewBox="0 0 24 24" width="24" height="24">
  <circle cx="12" cy="12" r="11" fill="#f0f0f0" stroke="#e0e0e0" stroke-width="0.5" />
  <g fill="#6B8E23">
    <path d="M16.7,7.3c-0.9-0.9-2.3-0.9-3.2,0l-1.5,1.5l-1.5-1.5c-0.9-0.9-2.3-0.9-3.2,0c-0.9,0.9-0.9,2.3,0,3.2L12,15l4.7-4.5
    C17.6,9.6,17.6,8.2,16.7,7.3z"/>
    <path d="M12,16c-0.2,0-0.4-0.1-0.6-0.2l-0.6-0.6C9.7,14.1,8.8,13.2,8,12.4c-0.8-0.8-1.3-1.5-1.7-2c-0.4-0.6-0.6-1.1-0.6-1.7
    c0-0.6,0.2-1.1,0.5-1.5c0.3-0.4,0.8-0.7,1.4-0.8c0.8-0.1,1.6,0.2,2.2,0.8l0.8,0.8c0.3,0.3,0.8,0.3,1.1,0l0.8-0.8
    c0.5-0.5,1.3-0.8,2.1-0.8c0.6,0,1.1,0.2,1.5,0.5c0.4,0.3,0.7,0.8,0.8,1.4c0.1,0.6,0,1.1-0.4,1.7c-0.3,0.6-0.9,1.3-1.7,2
    c-0.8,0.8-1.7,1.7-2.7,2.6l-0.6,0.6C12.4,15.9,12.2,16,12,16z"/>
  </g>
</svg>