<svg xmlns="http://www.w3.org/2000/svg" viewBox="0 0 24 24" width="24" height="24">
  <circle cx="12" cy="12" r="11" fill="#f0f0f0" stroke="#e0e0e0" stroke-width="0.5" />
  <g fill="#4C9F38">
    <path d="M12,6c-3.3,0-6,2.7-6,6s2.7,6,6,6s6-2.7,6-6S15.3,6,12,6z M14.3,14.9c-0.3,0.5-0.7,0.9-1.2,1.2
    c-0.5,0.3-1.1,0.5-1.7,0.5c-0.6,0-1.2-0.1-1.7-0.4s-1-0.7-1.3-1.2c-0.3-0.5-0.5-1.1-0.5-1.7c0-0.6,0.1-1.2,0.4-1.7s0.7-1,1.2-1.3
    c0.5-0.3,1.1-0.5,1.7-0.5c0.6,0,1.2,0.1,1.7,0.4s1,0.7,1.3,1.2c0.3,0.5,0.5,1.1,0.5,1.7C14.8,13.8,14.6,14.4,14.3,14.9z"/>
  </g>
</svg>